<svg xmlns="http://www.w3.org/2000/svg" viewBox="0 0 480.542 480.542">
  <path fill="#fff" d="M89.104 219.999h26.626c17.666 51.873 66.863 89.289 124.637 89.289 41.424 0 78.433-19.241 102.577-49.248h34.228c6.352 0 11.5-5.148 11.5-11.5v-28.541h5.184c12.474 0 22.621-10.148 22.621-22.622V139.54c0-11.022-7.926-20.224-18.376-22.217-7.547-34.184-26.132-63.235-54.028-84.307C315.476 11.417 279.615 0 240.366 0 160.701 0 97.864 47.184 82.511 117.9c-9.268 2.83-16.029 11.459-16.029 21.64v57.837c0 12.474 10.148 22.622 22.622 22.622zm.378-23v-57.081h24.789a131.198 131.198 0 0 0-5.525 37.748c0 6.567.49 13.021 1.423 19.333H89.482zm150.884 89.289c-59.894 0-108.621-48.728-108.621-108.622s48.727-108.62 108.621-108.62c59.895 0 108.622 48.727 108.622 108.62 0 21.898-6.52 42.297-17.709 59.374h-97.586c-6.351 0-11.5 5.149-11.5 11.5 0 6.352 5.149 11.5 11.5 11.5h77.398c-19.018 16.351-43.736 26.248-70.725 26.248zm125.305-49.248h-7.857a130.924 130.924 0 0 0 7.189-17.041h.667v17.041zm27.805-40.041h-22.91a132.128 132.128 0 0 0 1.423-19.333c0-13.115-1.938-25.785-5.525-37.748h27.013v57.081zM240.366 23c66.29 0 118.756 37.303 133.954 93.918h-17.217c-21.988-42.08-66.06-70.872-116.737-70.872-50.676 0-94.748 28.792-116.736 70.872h-17.22C121.593 60.338 174.166 23 240.366 23z"/>
  <path fill="#fff" d="M358.477 314.352H122.065c-36.506 0-66.206 29.699-66.206 66.205v88.484c0 6.352 5.149 11.5 11.5 11.5s11.5-5.148 11.5-11.5v-88.484c0-23.823 19.382-43.205 43.206-43.205h236.412c23.824 0 43.207 19.382 43.207 43.206v88.484c0 6.352 5.148 11.5 11.5 11.5s11.5-5.148 11.5-11.5v-88.484c0-36.506-29.7-66.206-66.207-66.206z"/>
</svg>
